<svg width="48" height="48" viewBox="0 0 48 48" fill="none" xmlns="http://www.w3.org/2000/svg">
<g clip-path="url(#clip0_109_9191)">
<path d="M48 24C48 10.7452 37.2548 0 24 0C10.7452 0 0 10.7452 0 24C0 37.2548 10.7452 48 24 48C37.2548 48 48 37.2548 48 24Z" fill="white"/>
<path d="M29.683 11.3682H18.3146C16.472 11.3682 14.7049 12.1001 13.402 13.403C12.0991 14.7059 11.3672 16.473 11.3672 18.3155V29.684C11.3672 31.5265 12.0991 33.2936 13.402 34.5965C14.7049 35.8994 16.472 36.6313 18.3146 36.6313H29.683C31.5255 36.6313 33.2926 35.8994 34.5955 34.5965C35.8984 33.2936 36.6303 31.5265 36.6303 29.684V18.3155C36.6303 16.473 35.8984 14.7059 34.5955 13.403C33.2926 12.1001 31.5255 11.3682 29.683 11.3682ZM34.4198 28.6861C34.4198 30.207 33.8156 31.6657 32.7402 32.7411C31.6647 33.8166 30.206 34.4208 28.6851 34.4208H19.3125C17.7915 34.4208 16.3329 33.8166 15.2574 32.7411C14.1819 31.6657 13.5777 30.207 13.5777 28.6861V19.3134C13.5777 17.7925 14.1819 16.3338 15.2574 15.2584C16.3329 14.1829 17.7915 13.5787 19.3125 13.5787H28.6851C30.206 13.5787 31.6647 14.1829 32.7402 15.2584C33.8156 16.3338 34.4198 17.7925 34.4198 19.3134V28.6861Z" fill="#181146"/>
<path d="M28.6058 19.44L28.5458 19.38L28.4953 19.3295C27.3013 18.1396 25.6841 17.4719 23.9985 17.4727C23.1472 17.4784 22.3055 17.6519 21.5213 17.9831C20.7371 18.3143 20.0259 18.7968 19.4282 19.4029C18.8305 20.0091 18.3582 20.7271 18.0381 21.5159C17.718 22.3047 17.5564 23.1488 17.5627 24C17.5614 25.7276 18.2424 27.3857 19.4574 28.6137C20.0526 29.2161 20.7618 29.6939 21.5436 30.0192C22.3255 30.3446 23.1643 30.5109 24.0111 30.5084C25.2813 30.4818 26.5163 30.0861 27.5655 29.3696C28.6148 28.6531 29.4328 27.6468 29.9199 26.4734C30.407 25.3 30.5421 24.0102 30.3088 22.7613C30.0755 21.5124 29.4838 20.3584 28.6058 19.44ZM23.9985 28.2821C23.1491 28.294 22.3154 28.053 21.6033 27.5898C20.8913 27.1266 20.3331 26.462 19.9998 25.6807C19.6665 24.8994 19.5731 24.0366 19.7315 23.202C19.8898 22.3675 20.2929 21.5989 20.8893 20.994C21.4857 20.3891 22.2485 19.9753 23.0808 19.8051C23.913 19.635 24.777 19.7162 25.563 20.0385C26.3489 20.3607 27.0213 20.9095 27.4945 21.6149C27.9678 22.3203 28.2205 23.1506 28.2206 24C28.2247 24.5585 28.1188 25.1123 27.9088 25.6298C27.6989 26.1473 27.389 26.6183 26.9969 27.016C26.6048 27.4137 26.1381 27.7302 25.6237 27.9474C25.1092 28.1647 24.5569 28.2784 23.9985 28.2821Z" fill="#181146"/>
<path d="M32.3448 17.1725C32.3464 17.3751 32.3081 17.5761 32.232 17.7639C32.1559 17.9517 32.0435 18.1227 31.9012 18.267C31.759 18.4113 31.5896 18.5262 31.4029 18.605C31.2162 18.6837 31.0158 18.7249 30.8132 18.7262C30.6123 18.7261 30.4133 18.6861 30.2279 18.6086C30.0426 18.5311 29.8744 18.4176 29.7332 18.2746C29.5193 18.0575 29.3737 17.7825 29.3147 17.4835C29.2556 17.1845 29.2856 16.8747 29.4009 16.5926C29.5163 16.3105 29.7119 16.0685 29.9635 15.8965C30.2151 15.7245 30.5116 15.6301 30.8163 15.6251C31.173 15.6251 31.5184 15.7502 31.7921 15.9788L31.8237 16.0104C31.8746 16.0518 31.9212 16.0984 31.9627 16.1493L31.9974 16.1872C32.2234 16.4657 32.3462 16.8138 32.3448 17.1725Z" fill="#181146"/>
</g>
<defs>
<clipPath id="clip0_109_9191">
<rect width="48" height="48" fill="white"/>
</clipPath>
</defs>
</svg>
