<svg width="30" height="30" viewBox="0 0 30 30" fill="none" xmlns="http://www.w3.org/2000/svg">
<path d="M15.1795 7.74287L18.3028 7.72462C20.093 7.72097 21.5451 9.17557 21.5379 10.9658L21.533 12.2307C21.5258 14.0088 20.082 15.4476 18.3028 15.4476H10.6248C8.84061 15.4476 7.39453 16.8936 7.39453 18.6766V19.922C7.39453 21.7063 8.84303 23.1523 10.6272 23.151L15.1905 23.145" stroke="#181146" stroke-width="2" stroke-linecap="round" stroke-linejoin="round"/>
<path fill-rule="evenodd" clip-rule="evenodd" d="M8.46199 11.6079C7.93659 11.6079 5.17578 9.37376 5.17578 7.03499C5.17578 5.2204 6.64741 3.75 8.46199 3.75C10.2766 3.75 11.7482 5.2204 11.7482 7.03499C11.7482 9.37376 8.98739 11.6079 8.46199 11.6079Z" stroke="#181146" stroke-width="2" stroke-linecap="round" stroke-linejoin="round"/>
<path d="M8.46289 7.05037V7.00781" stroke="#181146" stroke-width="1.5" stroke-linecap="round" stroke-linejoin="round"/>
<path fill-rule="evenodd" clip-rule="evenodd" d="M21.5381 26.2506C21.0127 26.2506 18.252 24.0165 18.252 21.6776C18.252 19.8631 19.7236 18.3926 21.5381 18.3926C23.3527 18.3926 24.8243 19.8631 24.8243 21.6776C24.8243 24.0165 22.0635 26.2506 21.5381 26.2506Z" stroke="#181146" stroke-width="2" stroke-linecap="round" stroke-linejoin="round"/>
<path d="M21.5371 21.693V21.6504" stroke="#181146" stroke-width="1.5" stroke-linecap="round" stroke-linejoin="round"/>
</svg>
