<svg width="48" height="48" viewBox="0 0 48 48" fill="none" xmlns="http://www.w3.org/2000/svg">
<g clip-path="url(#clip0_109_24679)">
<path d="M24 48C37.2548 48 48 37.2548 48 24C48 10.7452 37.2548 0 24 0C10.7452 0 0 10.7452 0 24C0 37.2548 10.7452 48 24 48Z" fill="white"/>
<path d="M18.63 15.2747C18.6306 15.9233 18.4388 16.5575 18.0789 17.097C17.719 17.6366 17.2071 18.0572 16.608 18.3057C16.0089 18.5542 15.3495 18.6193 14.7134 18.493C14.0773 18.3666 13.4929 18.0543 13.0343 17.5957C12.5757 17.1371 12.2634 16.5527 12.1371 15.9166C12.0107 15.2805 12.0759 14.6211 12.3243 14.022C12.5728 13.423 12.9935 12.911 13.533 12.5511C14.0725 12.1912 14.7067 11.9994 15.3553 12C16.2235 12.0008 17.056 12.3461 17.6699 12.9601C18.2839 13.574 18.6292 14.4065 18.63 15.2747Z" fill="#181146"/>
<path d="M17.0803 19.918H13.6319C13.1837 19.918 12.8203 20.2813 12.8203 20.7295V35.1895C12.8203 35.6378 13.1837 36.0011 13.6319 36.0011H17.0803C17.5285 36.0011 17.8919 35.6378 17.8919 35.1895V20.7295C17.8919 20.2813 17.5285 19.918 17.0803 19.918Z" fill="#181146"/>
<path d="M35.9171 28.2534V35.2544C35.9171 35.4521 35.8386 35.6416 35.6989 35.7814C35.5591 35.9212 35.3695 35.9997 35.1719 35.9997H31.4708C31.2732 35.9997 31.0836 35.9212 30.9438 35.7814C30.8041 35.6416 30.7256 35.4521 30.7256 35.2544V28.4713C30.7256 27.4576 31.0193 24.0502 28.0793 24.0502C25.7993 24.0502 25.335 26.3934 25.2371 27.445V35.2702C25.233 35.464 25.1536 35.6486 25.0156 35.7848C24.8777 35.921 24.6921 35.9981 24.4982 35.9997H20.9171C20.8192 36.0001 20.7221 35.9811 20.6315 35.9438C20.5408 35.9065 20.4585 35.8516 20.3892 35.7823C20.3199 35.7131 20.2651 35.6307 20.2278 35.5401C20.1905 35.4495 20.1715 35.3524 20.1719 35.2544V20.665C20.1715 20.5668 20.1904 20.4696 20.2277 20.3788C20.265 20.288 20.3198 20.2055 20.389 20.1359C20.4583 20.0664 20.5406 20.0112 20.6312 19.9736C20.7218 19.9359 20.819 19.9165 20.9171 19.9165H24.4982C24.5975 19.9149 24.6962 19.933 24.7885 19.9698C24.8808 20.0067 24.9648 20.0616 25.0356 20.1312C25.1064 20.2009 25.1627 20.284 25.2011 20.3756C25.2395 20.4672 25.2593 20.5656 25.2593 20.665V21.9281C26.1056 20.665 27.3624 19.6797 30.0371 19.6797C35.9519 19.6765 35.9171 25.2123 35.9171 28.2534Z" fill="#181146"/>
</g>
<defs>
<clipPath id="clip0_109_24679">
<rect width="48" height="48" fill="white"/>
</clipPath>
</defs>
</svg>
