<svg width="30" height="30" viewBox="0 0 30 30" fill="none" xmlns="http://www.w3.org/2000/svg">
<path d="M6.79322 24.5969C6.32002 24.6532 5.84027 24.6136 5.38277 24.4803C4.92527 24.3469 4.49944 24.1225 4.13071 23.8206C3.41321 23.1219 3.12194 21.9981 3.12194 19.9456L3.12447 19.8144C3.10157 19.2673 3.19542 18.7216 3.39973 18.2136C3.60406 17.7056 3.91416 17.247 4.30947 16.8681C6.07697 15.0794 9.77944 14.1719 15.3095 14.1719H15.3194C20.8494 14.1719 24.5494 15.0781 26.3194 16.8669C26.7128 17.2451 27.0213 17.7026 27.2246 18.209C27.428 18.7154 27.5218 19.2591 27.4995 19.8044C27.4995 19.8369 27.4995 19.9019 27.4995 19.9294C27.4995 21.9894 27.2081 23.1144 26.4919 23.8119C25.6431 24.6394 24.4694 24.6144 22.9831 24.5706C22.6281 24.5619 22.1981 24.5419 21.8269 24.5519C21.1078 24.5894 20.3976 24.379 19.8149 23.9558C19.2323 23.5326 18.8125 22.9224 18.6258 22.2269C18.1583 21.1581 17.7883 20.3144 15.3095 20.3144C12.8308 20.3144 12.4632 21.1581 11.9969 22.2281C11.8106 22.9237 11.3912 23.5342 10.8087 23.9577C10.2262 24.3811 9.51607 24.5918 8.79692 24.5544C8.38692 24.5544 8.00823 24.5644 7.65823 24.5731C7.35573 24.5894 7.06822 24.5969 6.79322 24.5969ZM15.3169 16.0506H15.3095C9.06569 16.0506 6.60569 17.2131 5.64194 18.1906C5.42407 18.3932 5.25369 18.6415 5.14306 18.9177C4.72184 19.9691 4.93459 21.5186 5.44197 22.4769C5.72697 22.7544 6.55571 22.7331 7.61071 22.7081C7.97571 22.6981 8.36942 22.6881 8.79692 22.6881C9.75442 22.6881 9.89692 22.3619 10.2782 21.4869C10.8069 20.2769 11.6032 18.4494 15.3095 18.4481C19.0158 18.4481 19.8156 20.2756 20.3431 21.4844C20.7269 22.3594 20.8694 22.6856 21.8269 22.6856H21.8369C22.2669 22.6856 22.6645 22.6956 23.0308 22.7056C24.077 22.7331 24.9058 22.7531 25.182 22.4769C25.6728 21.5291 25.9041 19.9627 25.4841 18.9154C25.3735 18.6394 25.2028 18.3914 24.9844 18.1894C24.0169 17.2119 21.5594 16.0506 15.3169 16.0506Z" fill="#181146"/>
<path d="M17.9745 11.847C17.7877 11.847 17.6052 11.7908 17.4507 11.6857C16.8186 11.2568 16.0722 11.0275 15.3082 11.0275C14.5444 11.0275 13.798 11.2568 13.1657 11.6857C13.0637 11.7547 12.9491 11.8028 12.8285 11.8275C12.7079 11.8521 12.5836 11.8528 12.4627 11.8294C12.3418 11.806 12.2267 11.759 12.1239 11.6912C12.0212 11.6233 11.9329 11.5359 11.8639 11.4338C11.795 11.3318 11.7468 11.2172 11.7221 11.0966C11.6975 10.9759 11.6968 10.8516 11.7202 10.7307C11.7436 10.6098 11.7906 10.4948 11.8584 10.392C11.9263 10.2893 12.0138 10.2009 12.1158 10.132C13.0576 9.49235 14.1699 9.15039 15.3082 9.15039C16.4467 9.15039 17.559 9.49235 18.5007 10.132C18.6675 10.2443 18.7937 10.4072 18.8607 10.5967C18.9279 10.7863 18.9322 10.9923 18.8732 11.1845C18.8142 11.3767 18.6951 11.5448 18.5332 11.6641C18.3715 11.7834 18.1756 11.8475 17.9745 11.847Z" fill="#181146"/>
<path d="M9.94878 9.14753C9.75467 9.14746 9.56538 9.08712 9.40702 8.97484C9.24867 8.86258 9.12903 8.70392 9.06469 8.52077C9.00036 8.33763 8.99448 8.13903 9.04783 7.95238C9.10118 7.76574 9.21113 7.60027 9.36254 7.47879C11.047 6.11997 13.1458 5.37891 15.3101 5.37891C17.4742 5.37891 19.5731 6.11997 21.2576 7.47879C21.4485 7.63503 21.5701 7.86023 21.5961 8.10556C21.6221 8.35089 21.5503 8.59658 21.3963 8.78936C21.2425 8.98213 21.0187 9.10644 20.7737 9.13534C20.5287 9.16426 20.2822 9.09543 20.0876 8.94378C18.735 7.85242 17.0493 7.25721 15.3112 7.25721C13.5732 7.25721 11.8877 7.85242 10.535 8.94378C10.3686 9.07656 10.1617 9.14846 9.94878 9.14753Z" fill="#181146"/>
</svg>
