<svg width="48" height="48" viewBox="0 0 48 48" fill="none" xmlns="http://www.w3.org/2000/svg">
<g clip-path="url(#clip0_109_24678)">
<mask id="mask0_109_24678" style="mask-type:luminance" maskUnits="userSpaceOnUse" x="0" y="0" width="48" height="48">
<path d="M48 0H0V48H48V0Z" fill="white"/>
</mask>
<g mask="url(#mask0_109_24678)">
<path d="M24 48C37.2548 48 48 37.2548 48 24C48 10.7452 37.2548 0 24 0C10.7452 0 0 10.7452 0 24C0 37.2548 10.7452 48 24 48Z" fill="white"/>
</g>
<g clip-path="url(#clip1_109_24678)">
<path d="M21.9281 34.4428C22.9942 34.4428 24.0603 34.4892 25.1264 34.4209C26.0964 34.3745 27.1171 34.2842 28.0644 34.0547C35.5978 32.27 39.6247 24.2329 36.3304 17.436C34.3397 13.3369 30.9292 11.0005 26.2632 10.5195C22.686 10.1533 19.4877 11.1836 16.7871 13.5175C14.1345 15.8296 12.7602 18.7129 12.6667 22.1699C12.644 22.9707 12.6667 23.7959 12.6667 24.5967C12.6415 26.3398 11.6234 27.6899 9.89287 28.2148C9.87014 28.2148 9.82214 28.2612 9.79688 28.2612C10.4613 29.9555 13.1594 32.4507 14.8419 33.0683C16.9538 30.2754 21.2157 31.2617 21.9281 34.4428Z" fill="white"/>
<path d="M21.8823 35.9757C21.6221 37.1208 20.983 37.9679 19.9396 38.4928C18.6133 39.1569 17.2618 39.1349 16.0062 38.3561C14.7026 37.5553 14.1342 36.342 14.2302 34.8527C14.253 34.6012 14.1822 34.5085 13.97 34.3937C11.6711 33.2267 9.84966 31.6007 8.5941 29.4035C8.35663 28.9689 8.16716 28.5099 8.04842 28.029C7.88169 27.3649 8.14442 27.0451 8.8543 26.9767C9.70819 26.8839 10.4661 26.5641 10.845 25.7853C11.0117 25.4411 11.1052 25.0309 11.1052 24.6403C11.1532 23.6564 11.1052 22.6725 11.1532 21.6862C11.4134 17.8849 13.0479 14.7282 16.034 12.255C18.7801 9.96988 22.0011 8.89566 25.6238 9.00797C31.9496 9.23746 37.3735 13.5417 38.6518 19.5622C39.8114 25.0114 38.0606 29.5671 33.5815 33.1144C33.3213 33.3195 33.0359 33.527 32.7277 33.7101C32.5609 33.8249 32.5155 33.9152 32.5862 34.0983C33.1773 35.839 32.3487 37.7604 30.6915 38.5856C28.4406 39.6623 25.836 38.5636 25.1488 36.2272C25.1261 36.1344 25.0073 36.0221 24.9366 36.0221C23.9438 35.9538 22.9232 35.9757 21.8823 35.9757ZM21.9303 34.4425C22.9964 34.4425 24.0625 34.4889 25.1286 34.4206C26.0987 34.3742 27.1193 34.2839 28.0667 34.0544C35.6 32.2697 39.6269 24.2326 36.3327 17.4357C34.342 13.3366 30.9315 11.0002 26.2654 10.5192C22.6882 10.153 19.4899 11.1833 16.7894 13.5172C14.1368 15.8293 12.7625 18.7126 12.669 22.1696C12.6463 22.9704 12.669 23.7956 12.669 24.5963C12.6437 26.3395 11.6256 27.6896 9.89513 28.2145C9.8724 28.2145 9.8244 28.2609 9.79913 28.2609C10.4635 29.9552 13.1616 32.4504 14.8441 33.068C16.9561 30.2751 21.2179 31.2614 21.9303 34.4425Z" fill="#181146"/>
<path d="M26.9292 28.4691C24.1326 28.3323 22.2859 27.2557 21.1011 25.1048C20.8156 24.5775 21.0784 24.0525 21.6215 23.9378C21.9525 23.8694 22.2607 24.0989 22.4981 24.4651C22.8064 24.9241 23.1146 25.3807 23.5162 25.7469C25.7419 27.783 29.3898 27.1434 30.7894 24.5115C30.9561 24.1917 31.1683 23.9402 31.57 23.9402C32.1612 23.9622 32.4946 24.5359 32.2344 25.0609C31.4993 26.5037 30.3397 27.556 28.776 28.0589C28.0888 28.2859 27.3789 28.3763 26.9292 28.4691Z" fill="#181146"/>
<path d="M21.976 20.958C21.1221 20.958 20.4375 20.2939 20.4375 19.4712C20.4375 18.6484 21.1246 17.9844 21.976 17.9844C22.8274 17.9844 23.5145 18.6484 23.5145 19.4712C23.517 20.272 22.8299 20.958 21.976 20.958Z" fill="#181146"/>
<path d="M32.8277 19.4478C32.8277 20.2729 32.1406 20.9346 31.3119 20.959C30.4581 20.959 29.7734 20.3169 29.7734 19.4722C29.7734 18.647 30.4378 17.9854 31.2892 17.9609C32.1178 17.9609 32.8024 18.625 32.8277 19.4478Z" fill="#181146"/>
</g>
</g>
<defs>
<clipPath id="clip0_109_24678">
<rect width="48" height="48" fill="white"/>
</clipPath>
<clipPath id="clip1_109_24678">
<rect width="31" height="30" fill="white" transform="translate(8 9)"/>
</clipPath>
</defs>
</svg>
