<svg width="48" height="48" viewBox="0 0 48 48" fill="none" xmlns="http://www.w3.org/2000/svg">
<g clip-path="url(#clip0_109_9190)">
<mask id="mask0_109_9190" style="mask-type:luminance" maskUnits="userSpaceOnUse" x="0" y="0" width="48" height="48">
<path d="M48 0H0V48H48V0Z" fill="white"/>
</mask>
<g mask="url(#mask0_109_9190)">
<path d="M24 48C37.2548 48 48 37.2548 48 24C48 10.7452 37.2548 0 24 0C10.7452 0 0 10.7452 0 24C0 37.2548 10.7452 48 24 48Z" fill="white"/>
<path d="M32.1521 15.3158C30.155 13.2961 27.5016 12.057 24.671 11.822C21.8403 11.5872 19.0191 12.3721 16.7164 14.035C14.4137 15.698 12.7815 18.1294 12.1143 20.8903C11.4472 23.6512 11.7891 26.5597 13.0784 29.0905L11.8153 35.2232C11.8018 35.2844 11.8013 35.3478 11.8137 35.4093C11.8262 35.4708 11.8515 35.5289 11.8879 35.58C11.94 35.6574 12.0145 35.717 12.1014 35.7508C12.1883 35.7847 12.2835 35.7912 12.3742 35.7695L18.3742 34.3453C20.8981 35.6008 23.7857 35.9199 26.5229 35.2459C29.2602 34.5719 31.6693 32.9485 33.3218 30.6646C34.9743 28.3808 35.7627 25.5847 35.5468 22.774C35.3309 19.9634 34.1246 17.3205 32.1426 15.3158H32.1521ZM30.2763 30.2747C28.8951 31.6535 27.1166 32.5647 25.1906 32.8802C23.2648 33.1956 21.2884 32.8996 19.5395 32.0337L18.6995 31.6169L15.0142 32.4884V32.4411L15.791 28.7242L15.3806 27.9158C14.4863 26.1622 14.1705 24.1703 14.4786 22.226C14.7867 20.2817 15.7027 18.485 17.0953 17.0937C18.8438 15.347 21.2142 14.3659 23.6858 14.3659C26.1574 14.3659 28.5278 15.347 30.2763 17.0937L30.3174 17.1506C32.0432 18.9028 33.0066 21.2661 32.9977 23.7256C32.9889 26.185 32.0084 28.5413 30.27 30.2811L30.2763 30.2747Z" fill="#181146"/>
<path d="M29.9496 27.5723C29.498 28.2828 28.7812 29.1512 27.8874 29.3691C26.3085 29.7481 23.9053 29.3691 20.8959 26.587L20.858 26.5523C18.2401 24.1081 17.5453 22.0712 17.7001 20.4575C17.7917 19.5386 18.5559 18.7112 19.2001 18.1681C19.3025 18.0817 19.4237 18.0205 19.554 17.9894C19.6843 17.9582 19.8201 17.958 19.9505 17.9887C20.081 18.0193 20.2024 18.0801 20.3051 18.1661C20.4078 18.2521 20.4891 18.3609 20.5422 18.4839L21.5117 20.6755C21.575 20.8165 21.5987 20.9722 21.5803 21.1257C21.562 21.2792 21.5022 21.4249 21.4074 21.547L20.9149 22.1786C20.8124 22.3097 20.7515 22.4684 20.7396 22.6343C20.7278 22.8002 20.7657 22.9659 20.8485 23.1102C21.3165 23.7999 21.8763 24.4225 22.5127 24.9607C23.1974 25.6196 23.9739 26.1759 24.818 26.6123C24.9721 26.6744 25.1411 26.6892 25.3036 26.6549C25.4661 26.6206 25.6148 26.5387 25.7307 26.4197L26.2959 25.845C26.4034 25.7292 26.5409 25.6456 26.6931 25.6032C26.8452 25.5609 27.0061 25.5615 27.158 25.605L29.4632 26.2649C29.5939 26.3021 29.714 26.3695 29.8137 26.4616C29.9134 26.5538 29.9901 26.6682 30.0374 26.7955C30.0848 26.9228 30.1014 27.0595 30.0863 27.1944C30.071 27.3293 30.0241 27.4588 29.9496 27.5723Z" fill="#181146"/>
</g>
</g>
<defs>
<clipPath id="clip0_109_9190">
<rect width="48" height="48" fill="white"/>
</clipPath>
</defs>
</svg>
